<?xml version="1.0" encoding="UTF-8" standalone="no"?>
<svg
   xmlns:dc="http://purl.org/dc/elements/1.1/"
   xmlns:cc="http://creativecommons.org/ns#"
   xmlns:rdf="http://www.w3.org/1999/02/22-rdf-syntax-ns#"
   xmlns:svg="http://www.w3.org/2000/svg"
   xmlns="http://www.w3.org/2000/svg"
   xmlns:sodipodi="http://sodipodi.sourceforge.net/DTD/sodipodi-0.dtd"
   xmlns:inkscape="http://www.inkscape.org/namespaces/inkscape"
   height="299.54419"
   width="300"
   xml:space="preserve"
   viewBox="0 0 33 32.949861"
   y="0px"
   x="0px"
   id="Ebene_1"
   version="1.1"
   sodipodi:docname="Bundesliga_logo_(2017).svg"
   inkscape:version="0.92.4 (5da689c313, 2019-01-14)"><sodipodi:namedview
     pagecolor="#ffffff"
     bordercolor="#666666"
     borderopacity="1"
     objecttolerance="10"
     gridtolerance="10"
     guidetolerance="10"
     inkscape:pageopacity="0"
     inkscape:pageshadow="2"
     inkscape:window-width="1366"
     inkscape:window-height="705"
     id="namedview100"
     showgrid="false"
     inkscape:zoom="0.78666667"
     inkscape:cx="100.66826"
     inkscape:cy="94.879648"
     inkscape:window-x="-8"
     inkscape:window-y="-8"
     inkscape:window-maximized="1"
     inkscape:current-layer="g7" /><metadata
     id="metadata19"><rdf:RDF><cc:Work
         rdf:about=""><dc:format>image/svg+xml</dc:format><dc:type
           rdf:resource="http://purl.org/dc/dcmitype/StillImage" /><dc:title /></cc:Work></rdf:RDF></metadata><defs
     id="defs17" /><style
     id="style3"
     type="text/css">
	.st0{fill:#FFFFFF;}
	.st1{fill:#D20515;}
</style><g
     transform="translate(-46.479458,-9.0501337)"
     id="g7"><path
       id="path9"
       d="m 49.399757,40.980005 c 0,0.629186 -0.293965,0.964412 -1.090761,0.964412 h -1.829538 v -3.543038 h 1.759917 c 0.822583,0 1.106231,0.324905 1.106231,0.923147 0,0.456421 -0.172768,0.665288 -0.660129,0.786484 l -0.09154,0.02579 0.08123,0.01547 c 0.554407,0.125056 0.724597,0.328773 0.724597,0.827735 z m -2.080954,-1.095914 h 0.741357 c 0.293965,0 0.426763,-0.128934 0.426763,-0.431921 0,-0.302991 -0.121195,-0.446106 -0.426763,-0.446106 h -0.738778 l -0.0026,0.878027 z m 1.22356,1.00953 c 0,-0.324904 -0.128935,-0.461575 -0.431922,-0.461575 h -0.789059 v 0.914125 h 0.789059 c 0.317172,-0.0026 0.4345,-0.134088 0.4345,-0.45384 l -0.0026,0.0013 z m 1.433719,-0.101863 v -2.390384 h 0.88318 v 2.359445 c 0,0.386792 0.177922,0.537643 0.654971,0.537643 0.477046,0 0.654973,-0.146982 0.654973,-0.537643 v -2.359445 h 0.883179 v 2.38523 c 0,0.832894 -0.482203,1.213243 -1.538152,1.213243 -1.055948,0 -1.535572,-0.375186 -1.535572,-1.209375 l -0.0026,0.0013 z m 7.220162,-2.38523 v 3.537879 h -1.075292 l -1.504629,-2.559288 v 2.557998 H 53.79503 v -3.541743 h 1.075287 l 1.502051,2.557998 v -2.557998 l 0.823876,0.0051 z m 0.72717,0 h 1.578123 c 1.237744,0 1.562649,0.507989 1.562649,1.76636 0,1.223559 -0.355849,1.771519 -1.562649,1.771519 h -1.579411 l 0.0013,-3.537879 z m 1.54718,2.86228 c 0.515725,0 0.684625,-0.269469 0.684625,-1.09592 0,-0.826451 -0.167615,-1.090756 -0.684625,-1.090756 h -0.670447 v 2.191833 l 0.670447,-0.0051 z m 2.235668,-2.867434 h 2.476777 v 0.675599 h -1.593598 v 0.742646 h 1.324129 v 0.665287 h -1.324129 v 0.773585 h 1.629695 v 0.675604 h -2.512874 z m 3.036337,3.403787 v -0.696227 c 0.380713,0.129326 0.780224,0.194677 1.182299,0.193396 0.406135,0 0.584062,-0.107014 0.584062,-0.386797 0,-0.238519 -0.07607,-0.309435 -0.400977,-0.37519 l -0.58922,-0.121195 c -0.613711,-0.128934 -0.817424,-0.375191 -0.817424,-0.979881 0,-0.773589 0.456418,-1.111388 1.375699,-1.111388 0.384163,-0.0034 0.765825,0.06208 1.126859,0.193396 v 0.689783 c -0.345117,-0.123426 -0.708759,-0.187083 -1.075286,-0.188237 -0.437075,0 -0.584057,0.117326 -0.584057,0.386792 0,0.228208 0.101852,0.293965 0.386792,0.355853 l 0.573745,0.121194 c 0.665289,0.141825 0.847079,0.364875 0.847079,0.999219 0,0.756826 -0.46673,1.101078 -1.418245,1.101078 -0.404589,0.0081 -0.807555,-0.05344 -1.191326,-0.181801 z m 3.223282,-3.403787 h 0.883181 v 2.862281 h 1.517523 v 0.675599 h -2.400704 z m 2.952538,0 h 0.883179 v 3.53788 h -0.883179 z m 4.539667,1.491734 v 1.923659 c -0.395721,0.124829 -0.80863,0.186613 -1.223559,0.183085 -1.228717,0 -1.805037,-0.542798 -1.805037,-1.832113 0,-1.289314 0.5789,-1.832117 1.805037,-1.832117 0.397863,-0.0063 0.793482,0.06091 1.16683,0.198555 v 0.684626 c -0.352948,-0.120719 -0.722917,-0.184267 -1.09592,-0.188238 -0.74135,0 -0.974714,0.299118 -0.974714,1.137174 0,0.872864 0.243679,1.160383 0.943775,1.160383 0.15438,1.48e-4 0.308593,-0.01013 0.461575,-0.03095 v -0.791638 h -0.654966 v -0.608562 l 1.376979,-0.0039 z m 2.884198,1.30479 h -1.382139 l -0.248836,0.741356 h -0.880611 l 1.26353,-3.53788 h 1.126859 l 1.258371,3.53788 H 78.59112 Z m -0.684622,-2.238252 -0.515726,1.59875 h 1.019842 z"
       inkscape:connector-curvature="0"
       style="stroke-width:1.22036541" /><rect
       style="fill:#d20515;stroke-width:1.22036541"
       id="rect11"
       height="26.314909"
       width="32.89299"
       class="st1"
       y="9.0501337"
       x="46.532967" /><path
       style="fill:#ffffff;stroke-width:1.22036541"
       id="path13"
       d="m 73.650154,22.902528 c 0.01804,0.06575 -0.03997,0.110882 -0.158589,0.197264 l -0.07221,0.03997 0.02451,0.0477 c 0.01676,0.03095 -0.01159,0.07736 -0.06189,0.101852 l -0.108307,0.05415 c -0.049,0.02579 -0.103158,0.02064 -0.11862,-0.01037 l -0.02321,-0.04384 -0.136661,0.06705 0.02192,0.04641 c 0.01546,0.03095 -0.01418,0.07736 -0.06575,0.10057 l -0.109601,0.05157 c -0.05029,0.02321 -0.103145,0.01677 -0.118619,-0.01547 l -0.01934,-0.04126 c -0.421606,0.198554 -0.893497,0.408711 -1.379568,0.634341 l 0.02708,0.06189 c 0.01676,0.03095 -0.01418,0.07606 -0.06318,0.09928 l -0.110882,0.05157 c -0.05029,0.02321 -0.104439,0.01547 -0.117338,-0.01547 l -0.02965,-0.06189 -0.156009,0.07606 0.02965,0.06318 c 0.01419,0.03223 -0.01418,0.07606 -0.06575,0.10057 l -0.109589,0.05028 c -0.05157,0.02321 -0.103145,0.01677 -0.118607,-0.01418 l -0.02837,-0.0606 c -0.220477,0.08767 -0.461576,0.128932 -0.636923,-0.202423 -0.07478,-0.152138 -0.07865,-0.501544 -0.136662,-0.687205 -0.02408,-0.0601 -0.07791,-0.103158 -0.141829,-0.113457 -2.142842,-0.411293 -2.868722,0.04641 -4.241848,-0.292676 -0.431921,-0.10572 -0.666573,-0.502833 -1.199063,-0.509278 -1.160381,-0.03482 -1.502049,-0.01805 -2.760422,-0.06575 -0.05415,0.181793 -0.0606,0.221761 -0.0606,0.221761 l -4.422348,-0.02064 0.675599,0.331357 0.216608,1.950732 c 0,0 -0.179217,0.05157 -0.230789,0.05802 0.04256,0.386795 0.0838,0.915415 0.105721,1.389881 0.01934,0.425473 0.04126,0.869 0.03739,1.151357 0.0013,0.183738 -0.04298,0.364931 -0.128934,0.52733 -0.08423,0.141643 -0.197088,0.264159 -0.331353,0.359716 -0.03997,0.02966 -0.211444,0.145693 -0.408714,0.257863 -0.197264,0.112176 -0.434495,0.241102 -0.554403,0.297832 0.01806,0.05191 0.03915,0.102705 0.06318,0.152138 -2.683064,1.299639 -6.017231,1.743161 -7.096391,3.808641 -0.128929,0.239814 -0.563429,0.114751 -0.57632,-0.143115 0,-0.118607 0,-0.310725 0,-0.417736 h -0.03869 c -0.03482,0 -0.06189,-0.0477 -0.05931,-0.104427 v -0.121194 c 0,-0.05544 0.03352,-0.09928 0.06705,-0.098 h 0.04641 c 0.01368,-0.119339 0.03653,-0.237439 0.06834,-0.353269 l -0.04126,-0.01418 c -0.03223,-0.01159 -0.04254,-0.06447 -0.02449,-0.117326 l 0.03997,-0.113458 c 0.01934,-0.05287 0.05931,-0.0851 0.09412,-0.07478 l 0.03997,0.01418 c 0.192107,-0.447391 0.562141,-0.644655 0.734909,-1.068839 l -0.02708,-0.01037 c -0.03482,-0.0129 -0.04513,-0.06446 -0.02579,-0.117326 l 0.03997,-0.114751 c 0.01934,-0.05287 0.0606,-0.0851 0.09411,-0.07349 l 0.02965,0.01037 c 0.02579,-0.06189 0.05544,-0.128929 0.08897,-0.197265 l -0.0361,-0.02449 c -0.03095,-0.01934 -0.03095,-0.0722 0,-0.119901 l 0.06575,-0.101852 c 0.02836,-0.04641 0.07608,-0.06962 0.10572,-0.05028 l 0.01547,0.009 h 0.01547 c 0.009,0 0.0129,0 0.02192,-0.01037 0.01671,-0.01851 0.03435,-0.03616 0.05287,-0.05287 0.16863,-0.124558 0.397924,-0.127672 0.569878,-0.0077 0.1689,0.101852 0.829029,0.478339 1.464658,-0.09283 1.048211,-0.9412 2.274349,-2.21891 3.196211,-2.262749 -0.250126,-0.538931 -0.684627,-1.668373 -0.733619,-2.08482 l -0.299123,-0.06318 c -0.161163,-0.346826 -0.553113,-1.949442 -0.663993,-3.153663 0,0 -0.128934,-1.29834 0,-1.754757 -0.07092,-0.0077 -0.201134,0.09928 -0.237236,0.10057 -0.1689,-0.41387 0.379059,-3.911778 0.921862,-4.930338 l 0.831603,-0.331354 c -0.08638,-0.01037 -0.6872,-0.03739 -2.267901,-0.166322 -0.88834,0.785191 -1.908186,1.628404 -2.425202,2.08611 -0.08767,0.06447 -0.234656,0.564722 -0.234656,0.564722 0,0 -0.257863,0.229496 -0.50412,0.398395 -0.319752,0.224343 -1.102363,0.397111 -1.272552,0.128932 -0.03869,-0.06575 -0.03223,-0.09412 0,-0.128932 0.121194,-0.128929 0.578898,-0.345535 0.733619,-0.635631 -0.250126,0.128932 -0.528617,0.257864 -0.746515,0.235946 -0.09541,0 -0.144403,-0.238525 -0.02192,-0.281072 0.332641,-0.140535 0.595663,-0.201131 0.791638,-0.477046 0.195975,-0.275914 0.417741,-0.442235 0.719438,-0.448682 0,0 1.469817,-1.919789 2.336239,-2.836492 0.239814,-0.250126 0.684625,-0.16761 0.684625,-0.16761 l 0.07478,-0.291384 c 0,0 2.965423,-0.354564 4.352728,0.103145 -0.03223,-0.839343 0.344247,-1.9546 1.65806,-1.9546 0.675599,0 1.66966,0.596955 1.805036,1.321549 0.04126,0.22305 -0.08767,0.371322 -0.156009,0.653682 -0.117326,0.426763 0.04642,0.902519 0,1.050791 -0.03867,0.122484 -0.176632,0.112176 -0.296539,0.278493 -0.104976,0.163979 -0.19598,0.336496 -0.272049,0.515726 l -0.17921,0.402267 -0.925731,-0.06705 c -0.337799,0.731043 -1.031452,2.220201 -1.27642,3.696465 v 0 c 0.727171,0.06189 4.022661,0.538934 4.022661,0.538934 l 0.07993,0.268179 c 0,0 1.388591,0.166321 2.524476,0.707833 0.257863,0.06189 0.892207,-0.03352 1.311233,0.158587 0.02836,-0.01677 0.098,-0.08767 0.128934,-0.107014 1.481422,0.456418 2.707555,1.232586 4.134831,1.578123 0,0 0.667862,0.162452 0.892203,0.206291 0.378525,0.07351 0.761378,0.122614 1.146197,0.14698 0.457711,0.0361 0.711706,0.02965 1.045642,0.049 0.237226,0.01418 0.526032,-0.02579 0.620154,0.31975 m 2.12092,-4.504867 c -1.008996,-0.0021 -1.828678,0.814095 -1.83081,1.823093 -0.0021,1.009 0.814087,1.828684 1.823091,1.830818 1.008996,0.0021 1.828686,-0.814095 1.830818,-1.823093 0,-0.0013 0,-0.0026 0,-0.0039 -0.0015,-1.008497 -0.819747,-1.825092 -1.828248,-1.824379 l 0.0051,-0.0026 z"
       class="st0"
       inkscape:connector-curvature="0" /></g></svg>